<mxfile host="app.diagrams.net" modified="2020-12-01T15:31:01.742Z" agent="5.0 (Windows NT 10.0; Win64; x64) AppleWebKit/537.36 (KHTML, like Gecko) Chrome/87.0.4280.66 Safari/537.36" etag="FAW7EefVhO04JN1xU7SO" version="13.10.5" type="github">
  <diagram id="61zbOe93JbNGSJWXZnwZ" name="Page-1">
    <mxGraphModel dx="1422" dy="762" grid="1" gridSize="10" guides="1" tooltips="1" connect="1" arrows="1" fold="1" page="1" pageScale="1" pageWidth="827" pageHeight="1169" math="0" shadow="0">
      <root>
        <mxCell id="0" />
        <mxCell id="1" parent="0" />
        <mxCell id="SJI-yMfquqlEPTfNqepB-1" value="Windows" style="rounded=1;whiteSpace=wrap;html=1;verticalAlign=top;" vertex="1" parent="1">
          <mxGeometry x="240" y="80" width="120" height="110" as="geometry" />
        </mxCell>
        <mxCell id="SJI-yMfquqlEPTfNqepB-2" value="Linux" style="rounded=1;whiteSpace=wrap;html=1;verticalAlign=top;" vertex="1" parent="1">
          <mxGeometry x="80" y="80" width="120" height="110" as="geometry" />
        </mxCell>
        <mxCell id="SJI-yMfquqlEPTfNqepB-3" value="code repo" style="rounded=1;whiteSpace=wrap;html=1;" vertex="1" parent="1">
          <mxGeometry x="105" y="150" width="70" height="30" as="geometry" />
        </mxCell>
        <mxCell id="SJI-yMfquqlEPTfNqepB-7" style="edgeStyle=orthogonalEdgeStyle;rounded=0;orthogonalLoop=1;jettySize=auto;html=1;entryX=1;entryY=0.5;entryDx=0;entryDy=0;" edge="1" parent="1" source="SJI-yMfquqlEPTfNqepB-4" target="SJI-yMfquqlEPTfNqepB-6">
          <mxGeometry relative="1" as="geometry" />
        </mxCell>
        <mxCell id="SJI-yMfquqlEPTfNqepB-4" value="Docker" style="rounded=1;whiteSpace=wrap;html=1;" vertex="1" parent="1">
          <mxGeometry x="265" y="110" width="70" height="30" as="geometry" />
        </mxCell>
        <mxCell id="SJI-yMfquqlEPTfNqepB-8" style="edgeStyle=orthogonalEdgeStyle;rounded=0;orthogonalLoop=1;jettySize=auto;html=1;entryX=1;entryY=0.5;entryDx=0;entryDy=0;" edge="1" parent="1" source="SJI-yMfquqlEPTfNqepB-5" target="SJI-yMfquqlEPTfNqepB-3">
          <mxGeometry relative="1" as="geometry" />
        </mxCell>
        <mxCell id="SJI-yMfquqlEPTfNqepB-5" value="VS Code" style="rounded=1;whiteSpace=wrap;html=1;" vertex="1" parent="1">
          <mxGeometry x="265" y="150" width="70" height="30" as="geometry" />
        </mxCell>
        <mxCell id="SJI-yMfquqlEPTfNqepB-6" value="Docker" style="rounded=1;whiteSpace=wrap;html=1;" vertex="1" parent="1">
          <mxGeometry x="105" y="110" width="70" height="30" as="geometry" />
        </mxCell>
        <mxCell id="SJI-yMfquqlEPTfNqepB-12" value="Container" style="rounded=1;whiteSpace=wrap;html=1;verticalAlign=top;" vertex="1" parent="1">
          <mxGeometry x="240" y="260" width="120" height="110" as="geometry" />
        </mxCell>
        <mxCell id="SJI-yMfquqlEPTfNqepB-13" value="Host" style="rounded=1;whiteSpace=wrap;html=1;verticalAlign=top;" vertex="1" parent="1">
          <mxGeometry x="80" y="260" width="120" height="110" as="geometry" />
        </mxCell>
        <mxCell id="SJI-yMfquqlEPTfNqepB-14" value="Debugger" style="rounded=1;whiteSpace=wrap;html=1;" vertex="1" parent="1">
          <mxGeometry x="105" y="330" width="70" height="30" as="geometry" />
        </mxCell>
        <mxCell id="SJI-yMfquqlEPTfNqepB-15" style="edgeStyle=orthogonalEdgeStyle;rounded=0;orthogonalLoop=1;jettySize=auto;html=1;exitX=1;exitY=0.5;exitDx=0;exitDy=0;" edge="1" parent="1" source="SJI-yMfquqlEPTfNqepB-19" target="SJI-yMfquqlEPTfNqepB-16">
          <mxGeometry relative="1" as="geometry" />
        </mxCell>
        <mxCell id="SJI-yMfquqlEPTfNqepB-16" value="Volume" style="rounded=1;whiteSpace=wrap;html=1;" vertex="1" parent="1">
          <mxGeometry x="265" y="290" width="70" height="30" as="geometry" />
        </mxCell>
        <mxCell id="SJI-yMfquqlEPTfNqepB-17" style="edgeStyle=orthogonalEdgeStyle;rounded=0;orthogonalLoop=1;jettySize=auto;html=1;exitX=1;exitY=0.5;exitDx=0;exitDy=0;" edge="1" parent="1" source="SJI-yMfquqlEPTfNqepB-14" target="SJI-yMfquqlEPTfNqepB-18">
          <mxGeometry relative="1" as="geometry" />
        </mxCell>
        <mxCell id="SJI-yMfquqlEPTfNqepB-18" value="Process" style="rounded=1;whiteSpace=wrap;html=1;" vertex="1" parent="1">
          <mxGeometry x="265" y="330" width="70" height="30" as="geometry" />
        </mxCell>
        <mxCell id="SJI-yMfquqlEPTfNqepB-19" value="Code" style="rounded=1;whiteSpace=wrap;html=1;" vertex="1" parent="1">
          <mxGeometry x="105" y="290" width="70" height="30" as="geometry" />
        </mxCell>
      </root>
    </mxGraphModel>
  </diagram>
</mxfile>
